<svg width="14" height="14" viewBox="0 0 14 14" fill="none" xmlns="http://www.w3.org/2000/svg">
<circle cx="7" cy="7" r="7" fill="#F3F3F3"/>
<path d="M6.7025 7.875V7.53375C6.7025 7.25375 6.76958 7.02917 6.90375 6.86C7.04375 6.685 7.25375 6.50708 7.53375 6.32625C7.69708 6.21542 7.805 6.1425 7.8575 6.1075C7.91 6.06667 7.98583 5.99667 8.085 5.8975C8.19 5.79833 8.26 5.69917 8.295 5.6C8.33583 5.50083 8.35625 5.38417 8.35625 5.25C8.35625 5.02833 8.2775 4.84167 8.12 4.69C7.9625 4.5325 7.7175 4.45375 7.385 4.45375C6.66167 4.45375 6.27667 4.85917 6.23 5.67L5.25 5.57375C5.26167 4.95542 5.44833 4.45667 5.81 4.0775C6.1775 3.6925 6.71125 3.5 7.41125 3.5C7.96542 3.5 8.42625 3.66042 8.79375 3.98125C9.16708 4.30208 9.35375 4.70458 9.35375 5.18875C9.35375 5.57375 9.27792 5.87125 9.12625 6.08125C8.97458 6.29125 8.75 6.49542 8.4525 6.69375C8.41167 6.72292 8.3475 6.76667 8.26 6.825C8.17833 6.8775 8.12 6.91542 8.085 6.93875C8.05 6.96208 8.00042 6.99708 7.93625 7.04375C7.87792 7.09042 7.83417 7.13125 7.805 7.16625C7.78167 7.20125 7.7525 7.24208 7.7175 7.28875C7.68833 7.33542 7.66792 7.385 7.65625 7.4375C7.64458 7.49 7.63875 7.54542 7.63875 7.60375V7.875H6.7025ZM6.615 9.75625V8.5925H7.8225V9.75625H6.615Z" fill="#2BBC79"/>
</svg>
