<svg width="13" height="12" viewBox="0 0 13 12" fill="none" xmlns="http://www.w3.org/2000/svg">
<path opacity="0.78" d="M7.26956 0.612793C4.17258 0.612793 1.65049 2.98011 1.53922 5.9348H0.111269L0 6.11279L2.33664 9.67266L2.39228 9.74386H2.485H2.59627L4.93292 6.18399L4.97001 6.09499L4.85874 5.917H3.41224C3.50497 3.97687 5.19254 2.39273 7.26956 2.39273C9.40221 2.39273 11.1454 4.06587 11.1454 6.11279C11.1454 8.15972 9.40221 9.83286 7.26956 9.83286C6.75031 9.83286 6.34232 10.2244 6.34232 10.7228C6.34232 11.2212 6.75031 11.6128 7.26956 11.6128C10.4407 11.6128 12.9999 9.13868 12.9999 6.11279C13.0184 3.0869 10.4407 0.612793 7.26956 0.612793Z" fill="#86969A"/>
</svg>
